<svg xmlns="http://www.w3.org/2000/svg" width="40" height="40" viewBox="0 0 40 40">
  <g id="Group_1211" data-name="Group 1211" transform="translate(-201 -6669)">
    <circle id="Ellipse_5" data-name="Ellipse 5" cx="20" cy="20" r="20" transform="translate(201 6669)" fill="#fff"/>
    <path id="whatsapp" d="M17.254,2.906a9.913,9.913,0,0,0-15.6,11.958L.25,20,5.5,18.622a9.9,9.9,0,0,0,4.736,1.206h0a9.915,9.915,0,0,0,7.01-16.922Zm-7.01,15.248h0a8.227,8.227,0,0,1-4.192-1.148l-.3-.179-3.118.818.832-3.04-.2-.312a8.237,8.237,0,1,1,6.978,3.86Zm4.518-6.169c-.248-.124-1.465-.723-1.692-.806s-.392-.124-.557.124-.64.806-.784.971-.289.186-.536.062A6.764,6.764,0,0,1,9.2,11.107,7.47,7.47,0,0,1,7.823,9.392c-.144-.248,0-.369.109-.505a7,7,0,0,0,.619-.847.455.455,0,0,0-.021-.434c-.062-.124-.557-1.343-.763-1.839s-.405-.417-.557-.425-.309-.009-.475-.009a.91.91,0,0,0-.66.31,2.777,2.777,0,0,0-.867,2.066A4.817,4.817,0,0,0,6.219,10.27a11.038,11.038,0,0,0,4.23,3.739,14.174,14.174,0,0,0,1.412.522,3.4,3.4,0,0,0,1.56.1,2.551,2.551,0,0,0,1.672-1.177,2.069,2.069,0,0,0,.144-1.178c-.062-.1-.227-.165-.474-.289Zm0,0" transform="translate(211.119 6679)" fill="#002564" fill-rule="evenodd"/>
  </g>
</svg>
