<svg xmlns="http://www.w3.org/2000/svg" width="24" height="24" viewBox="0 0 24 24">
  <g id="Group_240" data-name="Group 240" transform="translate(-197 -600)">
    <g id="Group_170" data-name="Group 170" transform="translate(0 -1.789)">
      <path id="Path_279" data-name="Path 279" d="M166.38,176.078a7.42,7.42,0,0,1-3.741-1.012.785.785,0,0,0-.4-.107.806.806,0,0,0-.208.028l-2.461.675.857-1.889a.784.784,0,0,0-.078-.785,7.427,7.427,0,1,1,6.027,3.088Zm0-16.428a9,9,0,0,0-7.563,13.878l-1.367,3.012a.786.786,0,0,0,.716,1.111.794.794,0,0,0,.208-.028l3.767-1.034a9,9,0,1,0,4.239-16.938Z" transform="translate(42.341 445.139)" fill-rule="evenodd"/>
      <path id="Path_280" data-name="Path 280" d="M289.341,296.311a1.542,1.542,0,0,0-1.312-.3c-.341.139-.558.673-.779.945a.327.327,0,0,1-.422.092,5.937,5.937,0,0,1-2.964-2.539.363.363,0,0,1,.046-.5,2.009,2.009,0,0,0,.539-.875,1.913,1.913,0,0,0-.241-1.034,2.461,2.461,0,0,0-.764-1.152,1.048,1.048,0,0,0-1.137.17,2.31,2.31,0,0,0-.8,1.829,2.646,2.646,0,0,0,.072.579,4.817,4.817,0,0,0,.556,1.283,10.063,10.063,0,0,0,.582.884,8.968,8.968,0,0,0,2.52,2.34,7.643,7.643,0,0,0,1.572.747,3.5,3.5,0,0,0,1.829.289,2.214,2.214,0,0,0,1.659-1.234,1.071,1.071,0,0,0,.077-.63C290.278,296.779,289.691,296.521,289.341,296.311Z" transform="translate(-77.159 318.826)" fill-rule="evenodd"/>
    </g>
    <path id="Path_376" data-name="Path 376" d="M0,0H24V24H0Z" transform="translate(197 600)" fill="none"/>
  </g>
</svg>
