<?xml version="1.0" encoding="UTF-8" standalone="no"?><!DOCTYPE svg PUBLIC "-//W3C//DTD SVG 1.1//EN" "http://www.w3.org/Graphics/SVG/1.1/DTD/svg11.dtd"><svg width="100%" height="100%" viewBox="0 0 55 55" version="1.1" xmlns="http://www.w3.org/2000/svg" xmlns:xlink="http://www.w3.org/1999/xlink" xml:space="preserve" xmlns:serif="http://www.serif.com/" style="fill-rule:evenodd;clip-rule:evenodd;stroke-linejoin:round;stroke-miterlimit:2;"><g id="Artboard2"><path d="M18.315,40.855l-0.324,0.106c-0.926,0.302 -1.862,0.596 -2.8,0.891c-0.869,0.272 -1.732,0.539 -2.591,0.815c0.09,-0.255 0.19,-0.521 0.296,-0.792c0.136,-0.354 0.275,-0.711 0.394,-1.074c0.114,-0.339 0.215,-0.681 0.32,-1.02c0.233,-0.763 0.449,-1.482 0.751,-2.133l0.171,-0.373l-0.225,-0.345c-1.55,-2.386 -2.972,-4.833 -3.248,-8.526c-0.465,-5.996 2.069,-10.146 4.278,-12.571c3.232,-3.549 7.11,-5.483 11.527,-5.742c3.071,-0.179 5.778,0.36 8.51,1.649c2.166,1.022 4.146,2.549 5.734,4.417c2.683,3.169 5.141,9.158 3.218,15.603c-1.401,4.715 -4.909,8.605 -9.623,10.674c-2.521,1.104 -5.507,1.552 -8.638,1.244c-3.191,-0.312 -5.562,-1.513 -7.459,-2.65l-0.291,-0.173Zm31.591,-15.421c-0.348,-3.502 -1.352,-6.7 -2.982,-9.516c-1.49,-2.555 -3.559,-4.822 -5.989,-6.558c-2.606,-1.857 -5.716,-3.195 -8.752,-3.77c-3.54,-0.666 -7.602,-0.402 -11.026,0.713c-5.916,1.928 -10.721,6.263 -13.174,11.897c-1.536,3.537 -2.102,6.909 -1.78,10.607c0.267,3.02 1.109,5.769 2.567,8.407l0.157,0.271c0.081,0.138 0.201,0.409 0.232,0.344c-0.009,0.11 -0.146,0.448 -0.227,0.646c-0.077,0.192 -0.157,0.377 -0.216,0.547c-1.1,3.239 -2.226,6.573 -3.301,9.767l-0.329,0.982l1.297,0l0.117,-0.042c2.161,-0.74 4.365,-1.433 6.569,-2.122c1.564,-0.49 3.129,-0.982 4.678,-1.491c3.636,1.847 7.02,2.672 10.812,2.553c3.771,-0.106 7.59,-1.217 10.749,-3.132c6.271,-3.801 9.836,-9.568 10.606,-17.208l-0.008,-2.895Z" style="fill:#fff;fill-rule:nonzero;"/><path d="M39.146,31.342c-0.215,-0.494 -0.762,-0.789 -1.458,-1.128l-0.546,-0.261c-0.752,-0.369 -1.239,-0.603 -2.09,-0.988l-0.15,-0.065c-0.624,-0.281 -1.103,-0.483 -1.53,-0.483l-0.171,0.011c-0.722,0.101 -1.227,0.842 -1.597,1.385c-0.071,0.106 -0.13,0.198 -0.183,0.259c-0.074,0.091 -0.15,0.202 -0.24,0.323c-0.135,0.191 -0.491,0.693 -0.653,0.714c-0.102,0 -0.349,-0.058 -0.964,-0.347c-1.971,-0.935 -3.435,-2.1 -4.753,-3.777l-0.318,-0.389c-0.294,-0.357 -0.914,-1.102 -0.9,-1.35c0.034,-0.126 0.314,-0.431 0.459,-0.594c0.102,-0.113 0.195,-0.219 0.277,-0.316l0.164,-0.193c0.327,-0.365 0.814,-0.913 0.823,-1.711c0.005,-0.427 -0.206,-0.914 -0.431,-1.425l-0.658,-1.558c-0.054,-0.124 -0.112,-0.289 -0.185,-0.473c-0.424,-1.163 -0.809,-2.077 -1.509,-2.389c-0.244,-0.107 -0.574,-0.158 -1.052,-0.158c-0.562,0 -1.227,0.073 -1.414,0.115c-1.616,0.389 -2.872,2.681 -3.16,3.765c-0.394,1.5 -0.097,3.418 0.372,4.651c0.562,1.49 1.621,2.908 2.549,4.156l0.161,0.215c2.1,2.832 4.963,5.175 7.865,6.432c1.767,0.762 3.997,1.638 5.591,1.638c2.101,0 4.41,-1.193 5.256,-2.718c0.308,-0.558 0.849,-2.422 0.445,-3.341" style="fill:#000;fill-rule:nonzero;"/></g></svg>