<?xml version="1.0" encoding="UTF-8" standalone="no"?>
<!DOCTYPE svg PUBLIC "-//W3C//DTD SVG 1.1//EN" "http://www.w3.org/Graphics/SVG/1.1/DTD/svg11.dtd">
<svg width="100%" height="100%" viewBox="0 0 100 100" version="1.1" xmlns="http://www.w3.org/2000/svg" xmlns:xlink="http://www.w3.org/1999/xlink" xml:space="preserve" xmlns:serif="http://www.serif.com/" style="fill-rule:evenodd;clip-rule:evenodd;stroke-linejoin:round;stroke-miterlimit:2;">
    <rect id="Artboard1" x="0" y="0" width="100" height="100" style="fill:none;"/>
    <g id="Artboard11" serif:id="Artboard1">
        <g>
            <g>
                <path d="M12.172,70.909C8.735,64.712 6.778,57.583 6.778,50C6.778,26.145 26.145,6.778 50,6.778C73.855,6.778 93.222,26.145 93.222,50C93.222,73.855 73.855,93.222 50,93.222C41.522,93.222 33.611,90.776 26.938,86.552L9.925,91.115C9.046,91.351 8.108,91.09 7.476,90.434C6.845,89.777 6.62,88.83 6.89,87.96L12.172,70.909ZM26.716,81.436C27.407,81.248 28.153,81.367 28.757,81.772C34.832,85.845 42.141,88.222 50,88.222C71.095,88.222 88.222,71.095 88.222,50C88.222,28.905 71.095,11.778 50,11.778C28.905,11.778 11.778,28.905 11.778,50C11.778,57.057 13.694,63.671 17.035,69.346C17.396,69.958 17.475,70.689 17.268,71.355L17.269,71.354L13.007,85.112L26.717,81.434L26.716,81.436Z" style="fill:#000;"/>
                <g transform="matrix(1,0,0,1,-1.38495,0.0221864)">
                    <path d="M71.7,57.4C71.3,56.5 70.3,56 69,55.3L68,54.8C66.6,54.1 65.7,53.7 64.2,53L64,52.9C62.9,52.4 62,52 61.2,52L60.9,52C59.6,52.2 58.7,53.5 58,54.5C57.9,54.7 57.8,54.9 57.7,55C57.6,55.2 57.4,55.4 57.3,55.6C57.1,55.9 56.4,56.9 56.1,56.9C55.9,56.9 55.5,56.8 54.3,56.3C50.7,54.6 48,52.5 45.6,49.4L45,48.7C44.5,48 43.3,46.7 43.4,46.2C43.5,46 44,45.4 44.2,45.1C44.4,44.9 44.6,44.7 44.7,44.5L45,44.1C45.6,43.4 46.5,42.4 46.5,41C46.5,40.2 46.1,39.3 45.7,38.4L44.5,35.6C44.4,35.4 44.3,35.1 44.2,34.7C43.4,32.6 42.7,30.9 41.4,30.3C41,30.1 40.4,30 39.5,30C38.5,30 37.3,30.1 36.9,30.2C33.9,30.9 31.7,35.1 31.1,37.1C30.4,39.8 30.9,43.3 31.8,45.6C32.8,48.3 34.8,50.9 36.5,53.2L36.8,53.6C40.6,58.8 45.9,63 51.2,65.3C54.4,66.7 58.5,68.3 61.4,68.3C65.2,68.3 69.5,66.1 71,63.3C71.5,62.5 72.5,59.1 71.7,57.4Z" style="fill:#000;fill-rule:nonzero;"/>
                </g>
            </g>
        </g>
    </g>
</svg>
