<?xml version="1.0" encoding="utf-8"?>
<!-- Generator: Adobe Illustrator 22.1.0, SVG Export Plug-In . SVG Version: 6.00 Build 0)  -->
<svg version="1.1" id="Layer_2" xmlns="http://www.w3.org/2000/svg" xmlns:xlink="http://www.w3.org/1999/xlink" x="0px" y="0px"
	 viewBox="0 0 200 200" style="enable-background:new 0 0 200 200;" xml:space="preserve">
<style type="text/css">
	.st0{fill-rule:evenodd;clip-rule:evenodd;fill:#00FF00;}
	.st1{fill-rule:evenodd;clip-rule:evenodd;fill:#BCBCBC;}
	.st2{fill:#FFFFFF;}
	.st3{fill-rule:evenodd;clip-rule:evenodd;fill:#333333;}
	.st4{fill-rule:evenodd;clip-rule:evenodd;fill:#FFFFFF;}
	.st5{fill-rule:evenodd;clip-rule:evenodd;fill:#5A8080;}
	.st6{fill:#D0D0D0;stroke:#838383;stroke-width:7;}
	.st7{fill:#DCDCDC;}
	.st8{fill:#FFFFFF;stroke:#838383;stroke-width:7;}
	.st9{fill:none;stroke:#B6B6B6;stroke-width:8;}
	.st10{fill:none;stroke:#838383;stroke-width:8;}
	.st11{fill:#F2BA2A;}
	.st12{fill:#008BB3;}
	.st13{fill:#E2A008;}
	.st14{fill:#C50347;}
	.st15{fill:#D84F1A;}
	.st16{fill-rule:evenodd;clip-rule:evenodd;fill:#222222;}
	.st17{fill:#3B5787;}
	.st18{fill:#2893CA;}
	.st19{fill:#6A3231;}
	.st20{fill:#838383;}
	.st21{fill:#019156;}
	.st22{fill:#DA3F37;}
	.st23{fill:#333333;}
	.st24{fill:#FFC6D5;}
	.st25{opacity:0.38;}
	.st26{fill:#B2222C;}
	.st27{fill:#FF0027;}
	.st28{fill:#4C5E51;}
	.st29{fill:#222222;}
	.st30{fill:#C64A38;}
	.st31{fill:#DB0347;}
	.st32{fill:#4D4D4D;}
	.st33{fill:#2995CC;}
	.st34{fill:#80DEA3;}
	.st35{fill:#0071A6;}
	.st36{fill:#6EC082;}
	.st37{fill-rule:evenodd;clip-rule:evenodd;fill:#B6B6B6;}
	.st38{fill-rule:evenodd;clip-rule:evenodd;fill:#DCDCDC;}
	.st39{fill:#89A93B;}
	.st40{fill-rule:evenodd;clip-rule:evenodd;fill:#FFFFFF;stroke:#FFFFFF;}
	.st41{fill:#3B5982;}
	.st42{fill:none;stroke:#415361;stroke-width:9;}
	.st43{fill:#415361;}
	.st44{fill:none;stroke:#FFFFFF;stroke-width:9;}
	.st45{fill:#013380;}
	.st46{fill:none;stroke:#FFFFFF;stroke-width:7;}
	.st47{fill:#007A00;}
	.st48{fill-rule:evenodd;clip-rule:evenodd;fill:#E2A008;}
	.st49{fill-rule:evenodd;clip-rule:evenodd;fill:#C50347;}
	.st50{fill-rule:evenodd;clip-rule:evenodd;fill:#008BB3;}
	.st51{fill-rule:evenodd;clip-rule:evenodd;fill:#00B4BB;}
	.st52{fill:#907C52;}
	.st53{fill:#E0B597;}
	.st54{fill-rule:evenodd;clip-rule:evenodd;fill:none;}
	.st55{fill:#0B80B8;}
	.st56{fill:#DFDFDF;}
	.st57{fill-rule:evenodd;clip-rule:evenodd;fill:#0B80B8;}
	.st58{fill:#D0D0D0;}
	.st59{opacity:0.17;fill:#0097D8;}
	.st60{fill:#80B487;}
	.st61{fill:#80B380;}
	.st62{fill:#44AFD0;}
	.st63{fill:#28AAC4;}
	.st64{fill:#80BFD4;}
	.st65{fill:#6CAE90;}
	.st66{fill:#E09F18;}
	.st67{fill:#00B4BB;}
	.st68{clip-path:url(#SVGID_3_);}
	.st69{fill:#008901;}
	.st70{fill:#2F2B2C;}
	.st71{fill:#B6B6B6;}
	.st72{fill:#9D9D9D;}
	.st73{fill:#AAADB8;}
	.st74{fill:#FFFFFF;stroke:#838383;stroke-width:5;}
	.st75{fill:#C2B9AD;}
	.st76{opacity:0.21;fill-rule:evenodd;clip-rule:evenodd;}
	.st77{fill:#FFCD6E;}
	.st78{fill:#C09C18;}
	.st79{fill:#3E3A34;}
	.st80{fill:#6A453B;}
	.st81{fill:#FF9ABA;}
	.st82{fill:#DE6489;}
	.st83{fill-rule:evenodd;clip-rule:evenodd;fill:#DE6489;}
	.st84{fill-rule:evenodd;clip-rule:evenodd;fill:#FF83B6;}
	.st85{fill-rule:evenodd;clip-rule:evenodd;fill:#FF7B96;}
	.st86{fill-rule:evenodd;clip-rule:evenodd;fill:#FF80A5;}
	.st87{fill:#B3921B;}
	.st88{fill:#DEB625;}
	.st89{fill:#A9A9A9;}
	.st90{fill:#BD9E31;}
	.st91{fill:#B0866D;}
	.st92{fill:#736357;}
	.st93{fill:#C5A88B;}
	.st94{fill:#6B482D;}
	.st95{fill:#806A44;}
	.st96{fill-rule:evenodd;clip-rule:evenodd;fill:#C5A88B;}
	.st97{fill:#725038;}
	.st98{fill-rule:evenodd;clip-rule:evenodd;fill:#907C52;}
	.st99{fill:#805736;}
	.st100{fill-rule:evenodd;clip-rule:evenodd;fill:#806A44;}
	.st101{fill:#FFC64A;}
	.st102{opacity:0.11;fill:url(#SVGID_4_);}
	.st103{fill:#CC5D83;}
	.st104{fill:#E180AE;}
	.st105{fill:#999999;}
	.st106{fill:#FF83B6;}
	.st107{fill:#D4B239;}
	.st108{fill-rule:evenodd;clip-rule:evenodd;fill:#FF80AE;}
	.st109{fill:#666666;}
	.st110{fill:#7F7F7F;}
	.st111{fill:#8F8F8F;}
	.st112{fill:#414042;}
	.st113{fill:#BBBDBE;}
	.st114{fill:#22363F;}
	.st115{fill:#4E7380;}
	.st116{fill:none;stroke:#57808D;stroke-width:5;stroke-miterlimit:10;}
	.st117{fill:#204856;}
	.st118{fill:#092830;}
	.st119{opacity:0.6;}
	.st120{fill:none;}
	.st121{fill:#A81E2D;}
	.st122{fill:#808082;}
	.st123{fill:#00FFFF;}
	.st124{fill:#D0D0D0;stroke:#808080;stroke-width:4;}
	.st125{opacity:0.47;}
	.st126{fill:#D22E2E;}
	.st127{fill:#4D4D4D;stroke:#806239;stroke-width:3;}
	.st128{fill:#806239;}
	.st129{fill:#D0D0D0;stroke:#838383;stroke-width:2;}
	.st130{fill:#D9D995;}
	.st131{fill:#D4B23B;}
	.st132{fill:#DEB621;}
	.st133{fill:#B89930;}
	.st134{opacity:0.44;fill:url(#SVGID_5_);}
	.st135{opacity:0.19;fill:url(#SVGID_6_);}
	.st136{fill:#CCA413;}
	.st137{fill:#8181D2;}
	.st138{fill:#A4B1E6;}
	.st139{fill:#8D9DCF;}
	.st140{fill:#9C9C9C;}
	.st141{fill:#8888C7;}
	.st142{fill:#1A1A1A;}
	.st143{fill:#FF8C33;}
	.st144{fill:#DB5A24;}
	.st145{fill:#CF622C;}
	.st146{fill:#CC3510;}
	.st147{fill:#FFC02C;}
	.st148{fill:#FF9455;}
	.st149{fill:#FFCE73;}
	.st150{opacity:0.45;fill:#D0D0D0;}
	.st151{opacity:0.4;fill:url(#SVGID_7_);}
	.st152{fill:#E1801E;}
	.st153{opacity:0.3;fill:url(#SVGID_8_);}
	.st154{fill:#A30F16;}
	.st155{fill:#CA0109;}
	.st156{fill:#E3A200;}
	.st157{fill:#5F2D00;}
	.st158{opacity:0.72;fill:#FFFF00;}
	.st159{fill:#E3AF62;}
	.st160{fill:#B68041;}
	.st161{fill:#FFFF00;}
	.st162{fill-rule:evenodd;clip-rule:evenodd;fill:#E1E1E1;}
	.st163{fill-rule:evenodd;clip-rule:evenodd;fill:#3B5982;}
	.st164{fill-rule:evenodd;clip-rule:evenodd;fill:#9D9D9D;}
	.st165{fill-rule:evenodd;clip-rule:evenodd;fill:#025FCE;}
	.st166{fill-rule:evenodd;clip-rule:evenodd;fill:#FF0080;}
	.st167{fill:url(#SVGID_9_);}
	.st168{opacity:9.000000e-02;}
	.st169{fill:url(#SVGID_10_);}
	.st170{fill:url(#SVGID_11_);}
	.st171{fill:#2C4A80;}
	.st172{fill:url(#SVGID_12_);}
	.st173{fill:url(#SVGID_13_);}
	.st174{fill:url(#SVGID_14_);}
	.st175{fill-rule:evenodd;clip-rule:evenodd;fill:#1A1A1A;}
	.st176{fill-rule:evenodd;clip-rule:evenodd;fill:#F7C600;}
	.st177{fill-rule:evenodd;clip-rule:evenodd;fill:#FF8782;}
	.st178{fill:#E04B3C;}
	.st179{fill:url(#SVGID_15_);}
	.st180{fill:#ABA0D8;}
	.st181{fill:#640F6C;}
	.st182{fill:#838383;stroke:#838383;stroke-width:0.25;}
	.st183{fill:#40C351;}
	.st184{fill:#373737;}
	.st185{fill:#01C302;}
	.st186{fill-rule:evenodd;clip-rule:evenodd;fill:#DB0347;}
	.st187{fill-rule:evenodd;clip-rule:evenodd;fill:#00A1C9;}
	.st188{fill:#F5F5F5;}
	.st189{fill-rule:evenodd;clip-rule:evenodd;}
	.st190{fill:#F10F11;}
	.st191{fill:#C90518;}
	.st192{fill:#FDFEF3;}
	.st193{fill-rule:evenodd;clip-rule:evenodd;fill:#F10F11;}
	.st194{fill-rule:evenodd;clip-rule:evenodd;fill:#FDFEF3;}
	.st195{fill:#4A4849;}
	.st196{fill:#1E1E1E;}
	.st197{fill:#DDA424;}
	.st198{fill:#F0A0CA;}
	.st199{fill-rule:evenodd;clip-rule:evenodd;fill:#F0A0CA;}
	.st200{opacity:0.15;fill-rule:evenodd;clip-rule:evenodd;fill:url(#SVGID_16_);}
	.st201{fill:none;stroke:#000000;stroke-width:3;stroke-linecap:round;stroke-linejoin:round;}
	.st202{fill-rule:evenodd;clip-rule:evenodd;fill:#F6C700;}
	.st203{fill-rule:evenodd;clip-rule:evenodd;fill:#F5F5F5;}
	.st204{fill:#3B5998;}
	.st205{clip-path:url(#SVGID_18_);fill:#2CAFA2;}
	.st206{clip-path:url(#SVGID_20_);fill:#77E888;}
	.st207{clip-path:url(#SVGID_22_);fill:#CC3A72;}
	.st208{clip-path:url(#SVGID_24_);fill:#EA9053;}
	.st209{fill:#EFDD00;}
	.st210{fill:url(#SVGID_25_);}
	.st211{opacity:0.3;}
	.st212{fill:#EB0B27;}
	.st213{fill-rule:evenodd;clip-rule:evenodd;fill:none;stroke:#000000;stroke-width:11;}
	.st214{fill-rule:evenodd;clip-rule:evenodd;fill:none;stroke:#000000;stroke-width:9;}
	.st215{fill-rule:evenodd;clip-rule:evenodd;fill:none;stroke:#FFFFFF;stroke-width:11;}
	.st216{fill-rule:evenodd;clip-rule:evenodd;fill:#FF0000;}
	.st217{fill:#353535;}
	.st218{fill:#484848;}
	.st219{fill-rule:evenodd;clip-rule:evenodd;fill:#3B5787;}
	.st220{fill:#F0C31C;}
	.st221{fill-rule:evenodd;clip-rule:evenodd;fill:#7E7E7E;}
	.st222{fill-rule:evenodd;clip-rule:evenodd;fill:#0095E5;}
	.st223{fill:#00FF00;}
	.st224{fill-rule:evenodd;clip-rule:evenodd;fill:#ED1C24;}
	.st225{fill-rule:evenodd;clip-rule:evenodd;fill:#E9CBAB;}
	.st226{fill-rule:evenodd;clip-rule:evenodd;fill:#CE0D1B;}
	.st227{fill:#CE0D1B;}
	.st228{fill-rule:evenodd;clip-rule:evenodd;fill:#736357;}
	.st229{fill:#E6D821;}
	.st230{fill:#FFB606;}
	.st231{fill-rule:evenodd;clip-rule:evenodd;fill:#019156;}
	.st232{fill-rule:evenodd;clip-rule:evenodd;fill:#F29B1A;}
	.st233{fill-rule:evenodd;clip-rule:evenodd;fill:#F0C31C;}
	.st234{fill:#F29B1A;}
	.st235{fill-rule:evenodd;clip-rule:evenodd;fill:#4D4D4D;}
	.st236{fill:#171717;}
	.st237{fill-rule:evenodd;clip-rule:evenodd;fill:#42B548;}
	.st238{fill:#42B548;}
	.st239{fill-rule:evenodd;clip-rule:evenodd;fill:#E98E53;}
	.st240{fill-rule:evenodd;clip-rule:evenodd;fill:url(#SVGID_30_);}
	.st241{fill:#8A4928;}
	.st242{fill-rule:evenodd;clip-rule:evenodd;fill:#D0D0D0;}
	.st243{fill-rule:evenodd;clip-rule:evenodd;fill:url(#SVGID_31_);}
	.st244{fill:#808080;}
	.st245{fill-rule:evenodd;clip-rule:evenodd;fill:#FFA608;}
	.st246{fill-rule:evenodd;clip-rule:evenodd;fill:url(#SVGID_32_);}
	.st247{fill:#D88500;}
	.st248{fill:#00AEFF;}
	.st249{fill:#0091FF;}
	.st250{fill:#3FCCFF;}
	.st251{fill:url(#SVGID_33_);}
	.st252{fill-rule:evenodd;clip-rule:evenodd;fill:#007A00;}
	.st253{fill:#F87F14;}
	.st254{fill-rule:evenodd;clip-rule:evenodd;fill:#1C62AA;}
	.st255{fill:#1C62AA;}
	.st256{fill:#009688;}
	.st257{fill:#1D1D1D;}
	.st258{fill:none;stroke:#1D1D1D;stroke-width:0;stroke-linecap:round;stroke-linejoin:round;}
	.st259{fill:#DD849A;}
	.st260{fill:#29D775;}
	.st261{fill:#26FF85;}
	.st262{fill:#C94141;}
	.st263{fill:#E74C3C;}
	.st264{fill:#C0392B;}
	.st265{fill:#F1C40F;}
	.st266{fill:#F39C12;}
	.st267{fill:#156DBC;}
	.st268{fill:#0A63A5;}
	.st269{fill:#F97C0B;}
	.st270{fill:#E06805;}
	.st271{fill:#399F4A;}
	.st272{fill:#2B8938;}
	.st273{fill:none;stroke:#000000;stroke-width:4;stroke-linecap:round;stroke-linejoin:round;}
	.st274{fill:#001601;}
	.st275{fill:#01AC66;}
	.st276{fill:#23921D;}
	.st277{fill:#009743;}
	.st278{fill:#342E27;}
	.st279{fill:#FD9B28;}
	.st280{fill:#1C1C1C;}
	.st281{fill:#E81D26;}
	.st282{fill:#CA0D1C;}
	.st283{fill:#EA6071;}
	.st284{fill:#FCFBEB;}
	.st285{fill:#B53CB5;}
	.st286{fill:#DA6BDD;}
	.st287{fill:#E60013;}
	.st288{fill:#9CC813;}
	.st289{fill-rule:evenodd;clip-rule:evenodd;fill:#009EDD;}
	.st290{fill:#F5A100;}
	.st291{fill:#F4F4E6;}
	.st292{fill:#F6BF9B;}
	.st293{fill:#ED917E;}
	.st294{fill:#E9686A;}
	.st295{fill:#FFF69A;}
	.st296{fill:#FFD782;}
	.st297{fill:#FDBD40;}
	.st298{fill:#E97424;}
	.st299{fill:#E1462B;}
	.st300{fill:#DA1C4B;}
	.st301{fill:#B11E48;}
	.st302{fill:#EB8CB3;}
	.st303{fill:#DB527D;}
	.st304{fill:#D9176C;}
	.st305{fill:#9B1E5A;}
	.st306{fill:#6F1D48;}
	.st307{fill:#DC93BF;}
	.st308{fill:#B459A1;}
	.st309{fill:#5E2C81;}
	.st310{fill:#C8D952;}
	.st311{fill:#8EC13F;}
	.st312{fill:#CEAC9A;}
	.st313{fill:#995F5B;}
	.st314{fill:#66342E;}
	.st315{fill:#301A12;}
	.st316{fill:#CFDFE8;}
	.st317{fill:#AABECE;}
	.st318{fill:#7D8D9C;}
	.st319{fill:#5A6470;}
	.st320{fill:#394D5C;}
	.st321{fill:#143441;}
	.st322{fill:#0D2436;}
	.st323{fill:#442155;}
	.st324{fill:#5F79BA;}
	.st325{fill:#87CEE9;}
	.st326{fill:#32B1CC;}
	.st327{fill:#2D75BB;}
	.st328{fill:#195C85;}
	.st329{fill:#7FCAC9;}
	.st330{fill:#36AFAD;}
	.st331{fill:#238892;}
	.st332{fill:#55B56A;}
	.st333{fill:#F0AE80;}
	.st334{fill:#E4925B;}
	.st335{fill:#D37F46;}
</style>
<g>
	<path class="st176" d="M192.8,96.6c-7.2,3.8-13.6,8.4-20.5,12.5c-6.8-7-10.5-17.1-15-26.3c-4.5-9.2-9.8-18.6-12.2-29.5
		c6.3-5.3,14.3-8.4,21.1-13.2C173.5,60.4,183.8,80.5,192.8,96.6z"/>
	<path class="st176" d="M23.2,42.1c8.7,2.1,15.7,6.1,24.4,8.1c-3.1,21.6-8.9,40.1-16.1,57c-10.2-0.2-16-5.3-24.4-7.5
		C13.2,83.8,20.3,63.6,23.2,42.1z"/>
	<path class="st176" d="M101.9,47.1c5.3-0.9,11.2,2.3,20,3.8c7.6,1.2,15.7,1.2,18.8,3.8c2.7,2.2,5.2,9.5,6.7,13.2
		c3.7,9.4,8,17.9,12.2,27.6c2.2,5.1,5.9,10.9,5.5,14.4c-0.3,3-4.8,7.4-8.3,7.5c-5.1,0.1-10.3-7.6-14.4-11.3
		c-5-4.5-9.4-8.3-13.3-12.5c-7.8-8.4-17.9-23-29.4-21.9c-5.8,0.5-7.9,6.6-10.5,11.9c-1.7,3.5-5.9,12.2-12.2,10
		c-6.6-2.3-2.8-25.1-0.6-29.5C80.3,56.4,95,48.3,101.9,47.1z"/>
	<path class="st176" d="M83.1,54C77,57,71.6,68.6,70.9,77.8C70.1,88.8,73.5,97.6,82,95.4c11.3-3,8.4-26.9,24.9-19.4
		c8.4,3.8,16.8,15.6,25.5,23.8c4.4,4.1,9.2,8.5,12.8,11.9c2.4,2.3,10.9,8.7,10,15c-0.5,3.3-4.4,7-8.3,6.9
		c-10.5-0.2-21.6-22-29.9-23.8c5.7,10.7,18.8,18.4,28.3,26.9c-0.6,4.7-3.4,7-6.1,9.4c-15.9-0.7-19.2-15.5-31.6-20.1
		c1.5,4.9,7,7.6,11.1,11.3c4.1,3.7,8.9,7.2,12.2,11.3c-12.6,12.3-25.3-5.2-34.4-10.6c4.4,7.7,11.4,12.6,19.4,16.3
		c-11.3,8.5-16.7-8.3-23.8-12.5c2.4-7.5-4.4-15.5-10.5-11.3c-0.1-10.6-14.1-11.7-18.8-5c-0.7-7.1-9.4-12.3-15.5-7.5
		c-14.3-6.7-7.8-20.2-3.3-37.6c2.7-10.5,5-19.9,6.6-27C61.5,53.4,72.6,55.1,83.1,54z"/>
	<path class="st176" d="M50.4,118.5c5.6-0.3,9.5,2.1,9.4,6.9C59.6,137.1,41.4,127.9,50.4,118.5z"/>
	<path class="st176" d="M69.2,124.2c16.5-3.5,6.9,20.9-3.3,20c-4.7-0.4-7.3-6.5-6.7-11.3C59.9,128.2,64.6,125.2,69.2,124.2z"/>
	<path class="st176" d="M89.2,133.6c2.4,7-3.4,17.1-8.3,18.2C63.3,155.5,80.3,124.1,89.2,133.6z"/>
	<path class="st176" d="M102.5,157.4c-3.9,2.2-11.1,4.1-14.4,0c-1.7-6.6,0.2-12.5,3.9-12.5C96.5,144.8,98.8,155.9,102.5,157.4z"/>
</g>
</svg>
