<?xml version="1.0" encoding="utf-8"?>
<!-- Generator: Adobe Illustrator 22.1.0, SVG Export Plug-In . SVG Version: 6.00 Build 0)  -->
<svg version="1.1" id="Layer_2" xmlns="http://www.w3.org/2000/svg" xmlns:xlink="http://www.w3.org/1999/xlink" x="0px" y="0px"
	 viewBox="0 0 100 100" style="enable-background:new 0 0 100 100;" xml:space="preserve">
<style type="text/css">
	.st0{fill-rule:evenodd;clip-rule:evenodd;fill:#00FF00;}
	.st1{fill-rule:evenodd;clip-rule:evenodd;fill:#BCBCBC;}
	.st2{fill:#FFFFFF;}
	.st3{fill-rule:evenodd;clip-rule:evenodd;fill:#333333;}
	.st4{fill-rule:evenodd;clip-rule:evenodd;fill:#FFFFFF;}
	.st5{fill-rule:evenodd;clip-rule:evenodd;fill:#5A8080;}
	.st6{fill:#D0D0D0;stroke:#838383;stroke-width:7;}
	.st7{fill:#DCDCDC;}
	.st8{fill:#FFFFFF;stroke:#838383;stroke-width:7;}
	.st9{fill:none;stroke:#B6B6B6;stroke-width:8;}
	.st10{fill:none;stroke:#838383;stroke-width:8;}
	.st11{fill:#F2BA2A;}
	.st12{fill:#008BB3;}
	.st13{fill:#E2A008;}
	.st14{fill:#C50347;}
	.st15{fill:#D84F1A;}
	.st16{fill-rule:evenodd;clip-rule:evenodd;fill:#222222;}
	.st17{fill:#3B5787;}
	.st18{fill:#2893CA;}
	.st19{fill:#6A3231;}
	.st20{fill:#838383;}
	.st21{fill:#019156;}
	.st22{fill:#DA3F37;}
	.st23{fill:#333333;}
	.st24{fill:#FFC6D5;}
	.st25{opacity:0.38;}
	.st26{fill:#B2222C;}
	.st27{fill:#FF0027;}
	.st28{fill:#4C5E51;}
	.st29{fill:#222222;}
	.st30{fill:#C64A38;}
	.st31{fill:#DB0347;}
	.st32{fill:#4D4D4D;}
	.st33{fill:#2995CC;}
	.st34{fill:#80DEA3;}
	.st35{fill:#0071A6;}
	.st36{fill:#6EC082;}
	.st37{fill-rule:evenodd;clip-rule:evenodd;fill:#B6B6B6;}
	.st38{fill-rule:evenodd;clip-rule:evenodd;fill:#DCDCDC;}
	.st39{fill:#89A93B;}
	.st40{fill-rule:evenodd;clip-rule:evenodd;fill:#FFFFFF;stroke:#FFFFFF;}
	.st41{fill:#3B5982;}
	.st42{fill:none;stroke:#415361;stroke-width:9;}
	.st43{fill:#415361;}
	.st44{fill:none;stroke:#FFFFFF;stroke-width:9;}
	.st45{fill:#013380;}
	.st46{fill:none;stroke:#FFFFFF;stroke-width:7;}
	.st47{fill:#007A00;}
	.st48{fill-rule:evenodd;clip-rule:evenodd;fill:#E2A008;}
	.st49{fill-rule:evenodd;clip-rule:evenodd;fill:#C50347;}
	.st50{fill-rule:evenodd;clip-rule:evenodd;fill:#008BB3;}
	.st51{fill-rule:evenodd;clip-rule:evenodd;fill:#00B4BB;}
	.st52{fill:#907C52;}
	.st53{fill:#E0B597;}
	.st54{fill-rule:evenodd;clip-rule:evenodd;fill:none;}
	.st55{fill:#0B80B8;}
	.st56{fill:#DFDFDF;}
	.st57{fill-rule:evenodd;clip-rule:evenodd;fill:#0B80B8;}
	.st58{fill:#D0D0D0;}
	.st59{opacity:0.17;fill:#0097D8;}
	.st60{fill:#80B487;}
	.st61{fill:#80B380;}
	.st62{fill:#44AFD0;}
	.st63{fill:#28AAC4;}
	.st64{fill:#80BFD4;}
	.st65{fill:#6CAE90;}
	.st66{fill:#E09F18;}
	.st67{fill:#00B4BB;}
	.st68{clip-path:url(#SVGID_3_);}
	.st69{fill:#008901;}
	.st70{fill:#2F2B2C;}
	.st71{fill:#B6B6B6;}
	.st72{fill:#9D9D9D;}
	.st73{fill:#AAADB8;}
	.st74{fill:#FFFFFF;stroke:#838383;stroke-width:5;}
	.st75{fill:#C2B9AD;}
	.st76{opacity:0.21;fill-rule:evenodd;clip-rule:evenodd;}
	.st77{fill:#FFCD6E;}
	.st78{fill:#C09C18;}
	.st79{fill:#3E3A34;}
	.st80{fill:#6A453B;}
	.st81{fill:#FF9ABA;}
	.st82{fill:#DE6489;}
	.st83{fill-rule:evenodd;clip-rule:evenodd;fill:#DE6489;}
	.st84{fill-rule:evenodd;clip-rule:evenodd;fill:#FF83B6;}
	.st85{fill-rule:evenodd;clip-rule:evenodd;fill:#FF7B96;}
	.st86{fill-rule:evenodd;clip-rule:evenodd;fill:#FF80A5;}
	.st87{fill:#B3921B;}
	.st88{fill:#DEB625;}
	.st89{fill:#A9A9A9;}
	.st90{fill:#BD9E31;}
	.st91{fill:#B0866D;}
	.st92{fill:#736357;}
	.st93{fill:#C5A88B;}
	.st94{fill:#6B482D;}
	.st95{fill:#806A44;}
	.st96{fill-rule:evenodd;clip-rule:evenodd;fill:#C5A88B;}
	.st97{fill:#725038;}
	.st98{fill-rule:evenodd;clip-rule:evenodd;fill:#907C52;}
	.st99{fill:#805736;}
	.st100{fill-rule:evenodd;clip-rule:evenodd;fill:#806A44;}
	.st101{fill:#FFC64A;}
	.st102{opacity:0.11;fill:url(#SVGID_4_);}
	.st103{fill:#CC5D83;}
	.st104{fill:#E180AE;}
	.st105{fill:#999999;}
	.st106{fill:#FF83B6;}
	.st107{fill:#D4B239;}
	.st108{fill-rule:evenodd;clip-rule:evenodd;fill:#FF80AE;}
	.st109{fill:#666666;}
	.st110{fill:#7F7F7F;}
	.st111{fill:#8F8F8F;}
	.st112{fill:#414042;}
	.st113{fill:#BBBDBE;}
	.st114{fill:#22363F;}
	.st115{fill:#4E7380;}
	.st116{fill:none;stroke:#57808D;stroke-width:5;stroke-miterlimit:10;}
	.st117{fill:#204856;}
	.st118{fill:#092830;}
	.st119{opacity:0.6;}
	.st120{fill:none;}
	.st121{fill:#A81E2D;}
	.st122{fill:#808082;}
	.st123{fill:#00FFFF;}
	.st124{fill:#D0D0D0;stroke:#808080;stroke-width:4;}
	.st125{opacity:0.47;}
	.st126{fill:#D22E2E;}
	.st127{fill:#4D4D4D;stroke:#806239;stroke-width:3;}
	.st128{fill:#806239;}
	.st129{fill:#D0D0D0;stroke:#838383;stroke-width:2;}
	.st130{fill:#D9D995;}
	.st131{fill:#D4B23B;}
	.st132{fill:#DEB621;}
	.st133{fill:#B89930;}
	.st134{opacity:0.44;fill:url(#SVGID_5_);}
	.st135{opacity:0.19;fill:url(#SVGID_6_);}
	.st136{fill:#CCA413;}
	.st137{fill:#8181D2;}
	.st138{fill:#A4B1E6;}
	.st139{fill:#8D9DCF;}
	.st140{fill:#9C9C9C;}
	.st141{fill:#8888C7;}
	.st142{fill:#1A1A1A;}
	.st143{fill:#FF8C33;}
	.st144{fill:#DB5A24;}
	.st145{fill:#CF622C;}
	.st146{fill:#CC3510;}
	.st147{fill:#FFC02C;}
	.st148{fill:#FF9455;}
	.st149{fill:#FFCE73;}
	.st150{opacity:0.45;fill:#D0D0D0;}
	.st151{opacity:0.4;fill:url(#SVGID_7_);}
	.st152{fill:#E1801E;}
	.st153{opacity:0.3;fill:url(#SVGID_8_);}
	.st154{fill:#A30F16;}
	.st155{fill:#CA0109;}
	.st156{fill:#E3A200;}
	.st157{fill:#5F2D00;}
	.st158{opacity:0.72;fill:#FFFF00;}
	.st159{fill:#E3AF62;}
	.st160{fill:#B68041;}
	.st161{fill:#FFFF00;}
	.st162{fill-rule:evenodd;clip-rule:evenodd;fill:#E1E1E1;}
	.st163{fill-rule:evenodd;clip-rule:evenodd;fill:#3B5982;}
	.st164{fill-rule:evenodd;clip-rule:evenodd;fill:#9D9D9D;}
	.st165{fill-rule:evenodd;clip-rule:evenodd;fill:#025FCE;}
	.st166{fill-rule:evenodd;clip-rule:evenodd;fill:#FF0080;}
	.st167{fill:url(#SVGID_9_);}
	.st168{opacity:9.000000e-02;}
	.st169{fill:url(#SVGID_10_);}
	.st170{fill:url(#SVGID_11_);}
	.st171{fill:#2C4A80;}
	.st172{fill:url(#SVGID_12_);}
	.st173{fill:url(#SVGID_13_);}
	.st174{fill:url(#SVGID_14_);}
	.st175{fill-rule:evenodd;clip-rule:evenodd;fill:#1A1A1A;}
	.st176{fill-rule:evenodd;clip-rule:evenodd;fill:#F6C700;}
	.st177{fill-rule:evenodd;clip-rule:evenodd;fill:#FF8782;}
	.st178{fill:#E04B3C;}
	.st179{fill:url(#SVGID_15_);}
	.st180{fill:#ABA0D8;}
	.st181{fill:#640F6C;}
	.st182{fill:#838383;stroke:#838383;stroke-width:0.25;}
	.st183{fill:#40C351;}
	.st184{fill:#373737;}
	.st185{fill:#01C302;}
	.st186{fill-rule:evenodd;clip-rule:evenodd;fill:#DB0347;}
	.st187{fill-rule:evenodd;clip-rule:evenodd;fill:#00A1C9;}
	.st188{fill:#F5F5F5;}
	.st189{fill-rule:evenodd;clip-rule:evenodd;}
	.st190{fill:#F10F11;}
	.st191{fill:#C90518;}
	.st192{fill:#FDFEF3;}
	.st193{fill-rule:evenodd;clip-rule:evenodd;fill:#F10F11;}
	.st194{fill-rule:evenodd;clip-rule:evenodd;fill:#FDFEF3;}
	.st195{fill:#4A4849;}
	.st196{fill:#1E1E1E;}
	.st197{fill:#DDA424;}
	.st198{fill:#F0A0CA;}
	.st199{fill-rule:evenodd;clip-rule:evenodd;fill:#F0A0CA;}
	.st200{opacity:0.15;fill-rule:evenodd;clip-rule:evenodd;fill:url(#SVGID_16_);}
	.st201{fill:none;stroke:#000000;stroke-width:3;stroke-linecap:round;stroke-linejoin:round;}
	.st202{fill-rule:evenodd;clip-rule:evenodd;fill:#F5F5F5;}
	.st203{fill:#3B5998;}
	.st204{clip-path:url(#SVGID_18_);fill:#2CAFA2;}
	.st205{clip-path:url(#SVGID_20_);fill:#77E888;}
	.st206{clip-path:url(#SVGID_22_);fill:#CC3A72;}
	.st207{clip-path:url(#SVGID_24_);fill:#EA9053;}
	.st208{fill:#EFDD00;}
	.st209{fill:url(#SVGID_25_);}
	.st210{opacity:0.3;}
	.st211{fill:#EB0B27;}
	.st212{fill-rule:evenodd;clip-rule:evenodd;fill:none;stroke:#000000;stroke-width:11;}
	.st213{fill-rule:evenodd;clip-rule:evenodd;fill:none;stroke:#000000;stroke-width:9;}
	.st214{fill-rule:evenodd;clip-rule:evenodd;fill:none;stroke:#FFFFFF;stroke-width:11;}
	.st215{fill-rule:evenodd;clip-rule:evenodd;fill:#FF0000;}
	.st216{fill:#353535;}
	.st217{fill:#484848;}
	.st218{fill-rule:evenodd;clip-rule:evenodd;fill:#3B5787;}
	.st219{fill:#F0C31C;}
	.st220{fill-rule:evenodd;clip-rule:evenodd;fill:#7E7E7E;}
	.st221{fill-rule:evenodd;clip-rule:evenodd;fill:#0095E5;}
	.st222{fill:#00FF00;}
	.st223{fill-rule:evenodd;clip-rule:evenodd;fill:#ED1C24;}
	.st224{fill-rule:evenodd;clip-rule:evenodd;fill:#E9CBAB;}
	.st225{fill-rule:evenodd;clip-rule:evenodd;fill:#CE0D1B;}
	.st226{fill:#CE0D1B;}
	.st227{fill-rule:evenodd;clip-rule:evenodd;fill:#736357;}
	.st228{fill:#E6D821;}
	.st229{fill:#FFB606;}
	.st230{fill-rule:evenodd;clip-rule:evenodd;fill:#019156;}
	.st231{fill-rule:evenodd;clip-rule:evenodd;fill:#F29B1A;}
	.st232{fill-rule:evenodd;clip-rule:evenodd;fill:#F0C31C;}
	.st233{fill:#F29B1A;}
	.st234{fill-rule:evenodd;clip-rule:evenodd;fill:#4D4D4D;}
	.st235{fill:#171717;}
	.st236{fill-rule:evenodd;clip-rule:evenodd;fill:#42B548;}
	.st237{fill:#42B548;}
	.st238{fill-rule:evenodd;clip-rule:evenodd;fill:#E98E53;}
	.st239{fill-rule:evenodd;clip-rule:evenodd;fill:url(#SVGID_30_);}
	.st240{fill:#8A4928;}
	.st241{fill-rule:evenodd;clip-rule:evenodd;fill:#D0D0D0;}
	.st242{fill-rule:evenodd;clip-rule:evenodd;fill:url(#SVGID_31_);}
	.st243{fill:#808080;}
	.st244{fill-rule:evenodd;clip-rule:evenodd;fill:#FFA608;}
	.st245{fill-rule:evenodd;clip-rule:evenodd;fill:url(#SVGID_32_);}
	.st246{fill:#D88500;}
	.st247{fill:#00AEFF;}
	.st248{fill:#0091FF;}
	.st249{fill:#3FCCFF;}
	.st250{fill:url(#SVGID_33_);}
	.st251{fill-rule:evenodd;clip-rule:evenodd;fill:#007A00;}
	.st252{fill:#F87F14;}
	.st253{fill-rule:evenodd;clip-rule:evenodd;fill:#1C62AA;}
	.st254{fill:#1C62AA;}
	.st255{fill:#009688;}
	.st256{fill:#1D1D1D;}
	.st257{fill:none;stroke:#1D1D1D;stroke-width:0;stroke-linecap:round;stroke-linejoin:round;}
	.st258{fill:#DD849A;}
	.st259{fill:#29D775;}
	.st260{fill:#26FF85;}
	.st261{fill:#C94141;}
	.st262{fill:#E74C3C;}
	.st263{fill:#C0392B;}
	.st264{fill:#F1C40F;}
	.st265{fill:#F39C12;}
	.st266{fill:#156DBC;}
	.st267{fill:#0A63A5;}
	.st268{fill:#F97C0B;}
	.st269{fill:#E06805;}
	.st270{fill:#399F4A;}
	.st271{fill:#2B8938;}
	.st272{fill:none;stroke:#000000;stroke-width:4;stroke-linecap:round;stroke-linejoin:round;}
	.st273{fill:#001601;}
	.st274{fill:#01AC66;}
	.st275{fill:#23921D;}
	.st276{fill:#009743;}
	.st277{fill:#342E27;}
	.st278{fill:#FD9B28;}
	.st279{fill:#1C1C1C;}
	.st280{fill:#E81D26;}
	.st281{fill:#CA0D1C;}
	.st282{fill:#EA6071;}
	.st283{fill:#FCFBEB;}
	.st284{fill:#B53CB5;}
	.st285{fill:#DA6BDD;}
	.st286{fill:#E60013;}
	.st287{fill:#9CC813;}
	.st288{fill-rule:evenodd;clip-rule:evenodd;fill:#009EDD;}
	.st289{fill:#F5A100;}
	.st290{fill:#F4F4E6;}
	.st291{fill:#F6BF9B;}
	.st292{fill:#ED917E;}
	.st293{fill:#E9686A;}
	.st294{fill:#FFF69A;}
	.st295{fill:#FFD782;}
	.st296{fill:#FDBD40;}
	.st297{fill:#E97424;}
	.st298{fill:#E1462B;}
	.st299{fill:#DA1C4B;}
	.st300{fill:#B11E48;}
	.st301{fill:#EB8CB3;}
	.st302{fill:#DB527D;}
	.st303{fill:#D9176C;}
	.st304{fill:#9B1E5A;}
	.st305{fill:#6F1D48;}
	.st306{fill:#DC93BF;}
	.st307{fill:#B459A1;}
	.st308{fill:#5E2C81;}
	.st309{fill:#C8D952;}
	.st310{fill:#8EC13F;}
	.st311{fill:#CEAC9A;}
	.st312{fill:#995F5B;}
	.st313{fill:#66342E;}
	.st314{fill:#301A12;}
	.st315{fill:#CFDFE8;}
	.st316{fill:#AABECE;}
	.st317{fill:#7D8D9C;}
	.st318{fill:#5A6470;}
	.st319{fill:#394D5C;}
	.st320{fill:#143441;}
	.st321{fill:#0D2436;}
	.st322{fill:#442155;}
	.st323{fill:#5F79BA;}
	.st324{fill:#87CEE9;}
	.st325{fill:#32B1CC;}
	.st326{fill:#2D75BB;}
	.st327{fill:#195C85;}
	.st328{fill:#7FCAC9;}
	.st329{fill:#36AFAD;}
	.st330{fill:#238892;}
	.st331{fill:#55B56A;}
	.st332{fill:#F6C700;}
</style>
<g>
	<path class="st176" d="M57.2,4.9c3.5-0.4,8,1,10.1,3.3c1.8,2,2.6,4.8,4.2,6.8c1.8,2.2,4,3.7,6.4,4.7c2.6,1.1,5.6,1.3,8.2,2.8
		c2.5,1.4,4.6,5.1,4.9,8.2c0.2,2.7-0.7,5.5-1,7.8c-0.5,3.7-0.2,7.3,0.9,10c1.1,2.7,3.7,4.8,4.1,7.9c0.4,3.8-1.2,8.1-3.1,10.1
		c-2,2.2-4.5,2.6-6.8,4.2c-2.4,1.7-4.4,4.4-5.4,7.4c-0.7,2-0.7,4.7-1.9,6.8c-1.5,2.7-6.5,6.5-10.4,6.3c-3.1-0.2-5.4-1.8-8.2-2.1
		c-2.9-0.2-5.5,0.4-7.8,1.5c-2.5,1.3-3.9,3.9-6.9,4.2c-4.3,0.5-11.2-2.1-13.2-4.4c-1.4-1.7-1.9-4.1-2.9-5.8
		c-1.8-2.9-4.4-5.1-7.9-6.1C18.6,78.3,16,78.2,14,77C11.4,75.6,8,71,8.3,66.2c0.2-2.6,1.3-4.6,1.7-6.9c0.4-2.5,0.2-5.1-0.6-7.7
		c-1.1-3.1-3.9-5.4-4.4-9.1c-0.3-2.9,0.7-6.7,2.2-8.6c1.7-2.2,5.6-3.3,7.7-5.1c3.2-2.8,5.7-6.5,6.9-10.9c0.4-1.4,0.8-3.3,1.7-4.7
		c1.6-2.5,4.9-4.9,8.7-4.9c3.9,0,6.1,1.8,9.7,1.8c3,0,5.6-0.7,7.7-1.7C51.8,7.3,53.9,5.3,57.2,4.9z M35.5,19.9c-3.8,1.8-7,4.4-9.5,7
		c-5.1,5.5-9.5,13.1-9.1,24c0.4,9.9,4.6,17.5,10.3,22.8c5.5,5.2,13.8,9.5,24,9.1c9.7-0.4,17.6-4.5,22.8-10.3
		c5.3-5.7,9.4-13.2,9.1-23.7c-0.3-10.5-4.7-17.5-10.1-22.9c-5.1-5.1-13.7-9.7-23.8-9.2C43.9,16.9,39.3,18.1,35.5,19.9z"/>
	<path class="st176" d="M78.6,48.1C78,39.4,74.3,33,69.4,28.6c-4.7-4.3-11.9-8.2-21.1-7.6c-4.3,0.3-8.4,1.4-11.5,3.1
		c-3.4,1.8-5.9,3.9-8.1,6.3c-4.5,5-8,11.6-7.4,21.3c0.5,8.4,4.4,14.8,9.4,19.4c5,4.6,12.6,7.9,21.3,7.4c8.4-0.5,14.9-4.4,19.3-9.4
		C75.7,64.1,79.3,57.3,78.6,48.1z M65.9,60.9c0.2,1,0.9,1.6,1,2.7c-3.7,5.3-16.5,4.6-23.6,2.7c-3.4-0.9-6.5-2.6-10-2.7
		c0-4.7,0-9.4,0-14.1c1,0.1,1.6-0.2,2.2-0.5c4.6-6.7,11.1-11.5,13.6-20.2c1.8-1.6,4.3,1.2,4.6,2.7c0.8,4.2-4.5,9.1-2.4,12.4
		c4.5,1.5,18.2-4.1,14.8,4.6c0.5,1.3,2,0.8,2.4,2.4c0.4,1.6-0.5,2.9-1.9,3.6C69,56.3,69,60,65.9,60.9z"/>
</g>
</svg>
