<?xml version="1.0" encoding="utf-8"?>
<!-- Generator: Adobe Illustrator 21.0.0, SVG Export Plug-In . SVG Version: 6.00 Build 0)  -->
<svg version="1.1" id="Layer_1" xmlns="http://www.w3.org/2000/svg" xmlns:xlink="http://www.w3.org/1999/xlink" x="0px" y="0px"
	 viewBox="0 0 235.8 235.8" style="enable-background:new 0 0 235.8 235.8;" xml:space="preserve">
<style type="text/css">
	.st0{display:none;}
	.st1{fill:#BCBCBC;}
	.st2{fill:#FFFFFF;}
	.st3{fill:#4D4D4D;}
	.st4{fill:#00FF00;}
	.st5{fill:#333333;}
	.st6{fill:#F6C700;}
	.st7{fill:#5A8080;}
	.st8{fill:#D0D0D0;stroke:#838383;stroke-width:7;}
	.st9{fill:#DCDCDC;}
	.st10{fill:#FFFFFF;stroke:#838383;stroke-width:7;}
	.st11{fill:none;stroke:#B6B6B6;stroke-width:8;}
	.st12{fill:none;stroke:#838383;stroke-width:8;}
	.st13{fill:#F2BA2A;}
	.st14{fill:#008BB3;}
	.st15{fill:#E2A008;}
	.st16{fill:#C50347;}
	.st17{fill:#D84F1A;}
	.st18{fill:#222222;}
	.st19{fill:#3B5787;}
	.st20{fill:#2893CA;}
	.st21{fill:#6A3231;}
	.st22{fill:#838383;}
	.st23{fill:#019156;}
	.st24{fill:#DA3F37;}
	.st25{fill:#FFC6D5;}
	.st26{opacity:0.38;}
	.st27{fill:#B2222C;}
	.st28{fill:#FF0027;}
	.st29{clip-path:url(#SVGID_2_);}
	.st30{fill:#4C5E51;}
	.st31{fill:#C64A38;}
	.st32{fill:#DB0347;}
	.st33{fill:#2995CC;}
	.st34{fill:#80DEA3;}
	.st35{fill:#0071A6;}
	.st36{fill:#6EC082;}
	.st37{fill:#B6B6B6;}
	.st38{fill:#89A93B;}
	.st39{fill:#FFFFFF;stroke:#FFFFFF;}
	.st40{fill:#3B5982;}
	.st41{fill:none;stroke:#415361;stroke-width:9;}
	.st42{fill:#415361;}
	.st43{fill:#013380;}
	.st44{fill:none;stroke:#FFFFFF;stroke-width:7;}
	.st45{fill:#007A00;}
	.st46{fill:#00B4BB;}
	.st47{fill:#907C52;}
	.st48{fill:#E0B597;}
	.st49{fill:none;}
	.st50{fill:#0B80B8;}
	.st51{fill:#DFDFDF;}
	.st52{fill:#D0D0D0;}
	.st53{opacity:0.17;fill:#0097D8;enable-background:new    ;}
	.st54{fill:#80B487;}
	.st55{fill:#80B380;}
	.st56{fill:#44AFD0;}
	.st57{fill:#28AAC4;}
	.st58{fill:#80BFD4;}
	.st59{fill:#6CAE90;}
	.st60{fill:#E09F18;}
	.st61{clip-path:url(#SVGID_4_);}
	.st62{fill:#008901;}
	.st63{fill:#2F2B2C;}
	.st64{fill:#9D9D9D;}
	.st65{fill:#AAADB8;}
	.st66{fill:#FFFFFF;stroke:#838383;stroke-width:5;}
	.st67{fill:#C2B9AD;}
	.st68{opacity:0.21;enable-background:new    ;}
	.st69{fill:#FFCD6E;}
	.st70{fill:#C09C18;}
	.st71{fill:#3E3A34;}
	.st72{fill:#6A453B;}
	.st73{fill:#FF9ABA;}
	.st74{fill:#DE6489;}
	.st75{fill:#FF83B6;}
	.st76{fill:#FF7B96;}
	.st77{fill:#FF80A5;}
	.st78{fill:#B3921B;}
	.st79{fill:#DEB625;}
	.st80{fill:#A9A9A9;}
	.st81{fill:#BD9E31;}
	.st82{fill:#B0866D;}
	.st83{fill:#736357;}
	.st84{fill:#C5A88B;}
	.st85{fill:#6B482D;}
	.st86{fill:#806A44;}
	.st87{fill:#725038;}
	.st88{fill:#805736;}
	.st89{fill:#FFC64A;}
	.st90{opacity:0.11;fill:url(#SVGID_5_);enable-background:new    ;}
	.st91{fill:#CC5D83;}
	.st92{fill:#E180AE;}
	.st93{fill:#999999;}
	.st94{fill:#D4B239;}
	.st95{fill:#FF80AE;}
	.st96{fill:#666666;}
	.st97{fill:#7F7F7F;}
	.st98{fill:#8F8F8F;}
	.st99{fill:#414042;}
	.st100{fill:#BBBDBE;}
	.st101{fill:#22363F;}
	.st102{fill:#4E7380;}
	.st103{fill:none;stroke:#57808D;stroke-width:5;stroke-miterlimit:10;}
	.st104{fill:#204856;}
	.st105{fill:#092830;}
	.st106{opacity:0.6;}
	.st107{fill:#A81E2D;}
	.st108{fill:#808082;}
	.st109{fill:#00FFFF;}
	.st110{fill:#D0D0D0;stroke:#808080;stroke-width:4;}
	.st111{opacity:0.47;}
	.st112{fill:#D22E2E;}
	.st113{fill:#4D4D4D;stroke:#806239;stroke-width:3;}
	.st114{fill:#806239;}
	.st115{fill:#D0D0D0;stroke:#838383;stroke-width:2;}
	.st116{fill:#D9D995;}
	.st117{fill:#D4B23B;}
	.st118{fill:#DEB621;}
	.st119{fill:#B89930;}
	.st120{opacity:0.44;fill:url(#SVGID_6_);enable-background:new    ;}
	.st121{opacity:0.19;fill:url(#SVGID_7_);enable-background:new    ;}
	.st122{fill:#CCA413;}
	.st123{fill:#8181D2;}
	.st124{fill:#A4B1E6;}
	.st125{fill:#8D9DCF;}
	.st126{fill:#9C9C9C;}
	.st127{fill:#8888C7;}
	.st128{fill:#1A1A1A;}
	.st129{fill:#FF8C33;}
	.st130{fill:#DB5A24;}
	.st131{fill:#CF622C;}
	.st132{fill:#CC3510;}
	.st133{font-family:'ArialMT';}
	.st134{font-size:12px;}
	.st135{fill:#FFC02C;}
	.st136{fill:#FF9455;}
	.st137{fill:#FFCE73;}
	.st138{opacity:0.45;fill:#D0D0D0;enable-background:new    ;}
	.st139{opacity:0.4;fill:url(#SVGID_8_);enable-background:new    ;}
	.st140{fill:#E1801E;}
	.st141{opacity:0.3;fill:url(#SVGID_9_);enable-background:new    ;}
	.st142{fill:#A30F16;}
	.st143{fill:#CA0109;}
	.st144{fill:#E3A200;}
	.st145{fill:#5F2D00;}
	.st146{opacity:0.72;fill:#FFFF00;enable-background:new    ;}
	.st147{fill:#E3AF62;}
	.st148{fill:#B68041;}
	.st149{fill:#FFFF00;}
	.st150{fill:#E1E1E1;}
	.st151{fill:#025FCE;}
	.st152{fill:#FF0080;}
	.st153{fill:url(#SVGID_10_);}
	.st154{opacity:9.000000e-02;enable-background:new    ;}
	.st155{fill:url(#SVGID_11_);}
	.st156{fill:url(#SVGID_12_);}
	.st157{fill:#2C4A80;}
	.st158{fill:url(#SVGID_13_);}
	.st159{fill:url(#SVGID_14_);}
	.st160{fill:url(#SVGID_15_);}
	.st161{fill:#E04B3C;}
	.st162{fill:url(#SVGID_16_);}
	.st163{fill:#ABA0D8;}
	.st164{fill:#640F6C;}
	.st165{fill:#838383;stroke:#838383;stroke-width:0.25;}
	.st166{fill:#40C351;}
	.st167{fill:#373737;}
	.st168{fill:#01C302;}
	.st169{fill:#00A1C9;}
	.st170{fill:#F5F5F5;}
	.st171{fill:#F10F11;}
	.st172{fill:#C90518;}
	.st173{fill:#FDFEF3;}
	.st174{fill:#4A4849;}
	.st175{fill:#DDA424;}
	.st176{fill:#F0A0CA;}
	.st177{opacity:0.15;fill:url(#SVGID_17_);enable-background:new    ;}
	.st178{fill:none;stroke:#000000;stroke-width:3;stroke-linecap:round;stroke-linejoin:round;}
	.st179{fill:#3B5998;}
	.st180{clip-path:url(#SVGID_19_);fill:#2CAFA2;}
	.st181{clip-path:url(#SVGID_21_);fill:#77E888;}
	.st182{clip-path:url(#SVGID_23_);fill:#CC3A72;}
	.st183{clip-path:url(#SVGID_25_);fill:#EA9053;}
	.st184{fill:#EFDD00;}
	.st185{fill:url(#SVGID_26_);}
	.st186{opacity:0.3;}
	.st187{fill:#EB0B27;}
	.st188{fill:none;stroke:#000000;stroke-width:11;}
	.st189{fill:none;stroke:#000000;stroke-width:9;}
	.st190{fill:none;stroke:#FFFFFF;stroke-width:11;}
	.st191{fill:#FF0000;}
	.st192{fill:#353535;}
	.st193{fill:#484848;}
	.st194{clip-path:url(#SVGID_28_);}
	.st195{clip-path:url(#SVGID_30_);}
	.st196{fill:#F0C31C;}
	.st197{fill:#7E7E7E;}
	.st198{fill:#0095E5;}
	.st199{fill:#ED1C24;}
	.st200{fill:#E9CBAB;}
	.st201{fill:#CE0D1B;}
	.st202{fill:#E6D821;}
	.st203{fill:#F29B1A;}
	.st204{fill:#171717;}
	.st205{fill:#42B548;}
	.st206{fill:#E98E53;}
	.st207{fill:url(#SVGID_31_);}
	.st208{fill:#8A4928;}
	.st209{fill:url(#SVGID_32_);}
	.st210{fill:#808080;}
	.st211{fill:#FFA608;}
	.st212{fill:url(#SVGID_33_);}
	.st213{fill:#D88500;}
	.st214{fill:#00AEFF;}
	.st215{fill:#0091FF;}
	.st216{fill:#3FCCFF;}
	.st217{fill:url(#SVGID_34_);}
	.st218{fill:#F87F14;}
	.st219{fill:#1C62AA;}
	.st220{fill:#009688;}
	.st221{fill:#1D1D1D;}
	.st222{fill:#DD849A;}
	.st223{fill:#C9EBEE;}
	.st224{fill:#03A39D;}
	.st225{fill:#CCE3BC;}
	.st226{fill:#FFBFC7;}
	.st227{fill:#FF00FF;}
	.st228{fill:url(#SVGID_35_);}
	.st229{fill:#29D775;}
	.st230{fill:#26FF85;}
	.st231{fill:#C94141;}
	.st232{fill:#E74C3C;}
	.st233{fill:#C0392B;}
	.st234{fill:#F1C40F;}
	.st235{fill:#F39C12;}
	.st236{fill:#156DBC;}
	.st237{fill:#0A63A5;}
	.st238{fill:#F97C0B;}
	.st239{fill:#E06805;}
	.st240{fill:#399F4A;}
	.st241{fill:#2B8938;}
	.st242{fill:none;stroke:#000000;stroke-width:4;stroke-linecap:round;stroke-linejoin:round;}
	.st243{fill:#001601;}
	.st244{fill:#01AC66;}
	.st245{fill:#23921D;}
	.st246{fill:#009743;}
	.st247{fill:#342E27;}
	.st248{fill:#FD9B28;}
	.st249{fill:#FBFBFB;}
	.st250{fill:#040404;}
	.st251{fill:#4E4E4F;}
	.st252{fill:#556783;}
	.st253{fill:#0470BA;}
	.st254{fill:#ED6A0D;}
	.st255{fill:#06ABEA;}
	.st256{fill:#6C83F5;}
	.st257{fill:#1C1C1C;}
	.st258{fill:#2E2E2E;}
	.st259{fill:#EFEFEF;}
	.st260{fill:#E35F8D;}
	.st261{fill:#E3E2E3;}
	.st262{fill:#E81D26;}
	.st263{fill:#F2D704;}
	.st264{fill:#2BA5DA;}
	.st265{clip-path:url(#SVGID_37_);}
	.st266{fill:#CA0D1C;}
	.st267{fill:#EA6071;}
	.st268{fill:#FCFBEB;}
	.st269{fill:#B53CB5;}
	.st270{fill:#DA6BDD;}
	.st271{fill:none;stroke:#0A3556;stroke-width:2;stroke-miterlimit:10;}
	.st272{fill:#0A3556;}
	.st273{fill:#E60013;}
	.st274{fill:#9CC813;}
	.st275{fill:#009EDD;}
	.st276{fill:#F5A100;}
</style>
<g id="Layer_2">
	<text class="st133 st134"> </text>
	<text class="st133 st134"> </text>
	<g>
		<text class="st133 st134">  </text>
		<text class="st133 st134"> </text>
	</g>
	<circle class="st2" cx="117.9" cy="117.9" r="111.5"/>
	<g>
		<g>
			<path class="st1" d="M129.1,48c5.5-0.7,12.4,1.5,15.7,5.2c2.8,3.1,4.1,7.4,6.6,10.5c2.7,3.5,6.2,5.8,9.9,7.3
				c4,1.7,8.6,2,12.7,4.4c3.8,2.2,7.2,7.9,7.5,12.7c0.3,4.3-1.1,8.5-1.6,12.1c-0.8,5.8-0.4,11.3,1.4,15.5c1.7,4.1,5.8,7.5,6.3,12.3
				c0.7,5.9-1.9,12.5-4.8,15.7c-3,3.4-7,4.1-10.5,6.5c-3.8,2.7-6.8,6.9-8.3,11.5c-1,3.1-1.1,7.3-3,10.5c-2.4,4.2-10.1,10.1-16.1,9.7
				c-4.8-0.3-8.4-2.9-12.7-3.2c-4.5-0.3-8.5,0.6-12.1,2.4c-3.9,2-6,6-10.7,6.5c-6.7,0.8-17.4-3.2-20.4-6.8c-2.2-2.6-2.9-6.3-4.6-8.9
				c-2.8-4.5-6.8-7.8-12.3-9.5c-2.9-0.9-6.8-1-9.9-2.8c-4.1-2.3-9.4-9.4-8.9-16.9c0.2-4.1,2-7.1,2.6-10.7c0.6-3.9,0.4-8-1-11.9
				c-1.6-4.8-6.1-8.4-6.7-14.1c-0.5-4.6,1.1-10.3,3.4-13.3c2.7-3.5,8.6-5.1,11.9-7.9c4.9-4.3,8.8-10.1,10.7-16.9
				c0.6-2.2,1.2-5.2,2.6-7.3c2.5-3.9,7.6-7.6,13.5-7.5c6.1,0,9.4,2.8,15.1,2.8c4.6,0,8.6-1.1,11.9-2.6C120.7,51.8,124,48.7,129.1,48
				z M95.4,71.3c-5.9,2.8-10.8,6.7-14.7,10.9c-7.9,8.5-14.7,20.2-14.1,37.1c0.6,15.4,7.2,27.1,15.9,35.3
				c8.5,8.1,21.3,14.8,37.1,14.1c14.9-0.6,27.2-7,35.3-15.9c8.2-8.9,14.5-20.5,14.1-36.7s-7.3-27.2-15.7-35.5
				c-7.9-7.9-21.2-15-36.9-14.3C108.4,66.7,101.2,68.5,95.4,71.3z"/>
			<path class="st1" d="M162.2,114.9c-0.9-13.5-6.7-23.3-14.3-30.2c-7.3-6.6-18.4-12.7-32.7-11.7c-6.6,0.5-13,2.2-17.9,4.8
				c-5.2,2.7-9.1,6-12.5,9.7c-7,7.7-12.4,17.9-11.5,32.9c0.7,13,6.9,22.9,14.5,30c7.7,7.1,19.5,12.3,32.9,11.5
				c13-0.8,23-6.8,30-14.5C157.6,139.8,163.2,129.1,162.2,114.9z M142.5,134.8c0.3,1.6,1.3,2.4,1.5,4.1c-5.7,8.2-25.5,7.1-36.5,4.1
				c-5.3-1.4-10.1-4-15.4-4.1c0-7.3,0-14.6,0-21.9c1.5,0.2,2.4-0.3,3.4-0.8c7.1-10.4,17.1-17.8,21.1-31.3c2.7-2.6,6.7,1.8,7.2,4.1
				c1.2,6.5-7,14.1-3.8,19.2c7,2.3,28.1-6.3,23,7.2c0.7,2,3.2,1.3,3.8,3.8s-0.7,4.6-3,5.6C147.3,127.7,147.2,133.3,142.5,134.8z"/>
		</g>
	</g>
</g>
</svg>
